{"title":"Ip Man 3 - The Final Fight DVDRip.flv","uid":8710967,"size":596967542,"categoryP":"video","categoryS":"movies","magnet":"?xt=urn:btih:2db980187530edd6af504a47420cdcc1ca528ba7&amp;dn=Ip+Man+3+-+The+Final+Fight+DVDRip.flv&amp;tr=udp%3A%2F%2Ftracker.openbittorrent.com%3A80&amp;tr=udp%3A%2F%2Fopen.demonii.com%3A1337&amp;tr=udp%3A%2F%2Ftracker.coppersurfer.tk%3A6969&amp;tr=udp%3A%2F%2Fexodus.desync.com%3A6969","seeders":1,"leechers":0,"uploader":"globeplus","files":-1,"time":1374193880,"description":"Ip Man 3 - The Final Fight DVDRip.flv\n\n\nPlot\n\nIn 1949, Ip Man, who has been suffering from chronic gastric problems, travels alone to Hong Kong to seek new means of livelihood. He starts by teaching Wing Chun on the rooftop of a building which houses a hotel staff's general association. He meets and accepts many new students, including Tang Shing, Leung Sheung, Lee King and Chan Sei-mui. During that period of time, Ip Man's wife Cheung Wing-sing also comes to Hong Kong to join her husband, but returns to Foshan shortly after because life in Hong Kong is hard. The couple never saw each other again.\n\nIp Man: The Final Fight portrays a realistic account of Ip Man's later life in Hong Kong: he struggles against the vicissitudes of life; he insists on pursuing a romance with the singer Jenny after his wife's death, against the wishes of his disciples; his father-son and master-apprentice relationships with his elder son Ip Chun; his thoughts on Bruce Lee, who would become his most celebrated student.\n\n\nGeneral INFO :\n\nFormat                                   : Flash Video\nFile size                                : 569 MiB\nDuration                                 : 1h 40mn\nOverall bit rate                         : 794 Kbps\nTagging application                      : Yet Another Metadata Injector for FLV - Version 1.9\n\nVideo\n\nFormat                                   : AVC\nFormat/Info                              : Advanced Video Codec\nFormat profile                           : &lt;a class=&quot;__cf_email__&quot; href=&quot;/cdn-cgi/l/email-protection&quot; data-cfemail=&quot;0b43626c634b4739253a&quot;&gt;[email&amp;#160;protected]&lt;/a&gt;&lt;script cf-hash='f9e31' type=&quot;text/javascript&quot;&gt;\n/* &lt;![CDATA[ */!function(){try{var t=&quot;currentScript&quot;in document?document.currentScript:function(){for(var t=document.getElementsByTagName(&quot;script&quot;),e=t.length;e--;)if(t[e].getAttribute(&quot;cf-hash&quot;))return t[e]}();if(t&amp;&amp;t.previousSibling){var e,r,n,i,c=t.previousSibling,a=c.getAttribute(&quot;data-cfemail&quot;);if(a){for(e=&quot;&quot;,r=parseInt(a.substr(0,2),16),n=2;a.length-n;n+=2)i=parseInt(a.substr(n,2),16)^r,e+=String.fromCharCode(i);e=document.createTextNode(e),c.parentNode.replaceChild(e,c)}}}catch(u){}}();/* ]]&gt; */&lt;/script&gt;\nFormat settings, CABAC                   : Yes\nFormat settings, ReFrames                : 4 frames\nCodec ID                                 : 7\nDuration                                 : 1h 40mn\nBit rate                                 : 700 Kbps\nWidth                                    : 640 pixels\nHeight                                   : 272 pixels\nDisplay aspect ratio                     : 2.35:1\nFrame rate mode                          : Constant\nFrame rate                               : 23.976 fps\nColor space                              : YUV\nChroma subsampling                       : 4:2:0\nBit depth                                : 8 bits\nScan type                                : Progressive\nBits/(Pixel*Frame)                       : 0.168\nStream size                              : 496 MiB (87%)\nWriting library                          : x264 core 128 r2 198a7ea\n\n\nAudio\n\nFormat                                   : AAC\nFormat/Info                              : Advanced Audio Codec\nFormat profile                           : LC\nCodec ID                                 : 10\nDuration                                 : 1h 40mn\nBit rate                                 : 94.4 Kbps\nChannel(s)                               : 2 channels\nChannel positions                        : Front: L R\nSampling rate                            : 44.1 KHz\nCompression mode                         : Lossy\nDelay relative to video                  : 19ms\nStream size                              : 72.0 MiB (13%)\n\n\n\n* enjoy ...","torrent":{"xt":"urn:btih:2db980187530edd6af504a47420cdcc1ca528ba7","amp;dn":"Ip+Man+3+-+The+Final+Fight+DVDRip.flv","amp;tr":["udp%3A%2F%2Ftracker.openbittorrent.com%3A80","udp%3A%2F%2Fopen.demonii.com%3A1337","udp%3A%2F%2Ftracker.coppersurfer.tk%3A6969","udp%3A%2F%2Fexodus.desync.com%3A6969"],"infoHash":"2db980187530edd6af504a47420cdcc1ca528ba7","infoHashBuffer":{"type":"Buffer","data":[45,185,128,24,117,48,237,214,175,80,74,71,66,12,220,193,202,82,139,167]},"announce":[],"urlList":[]}}